<?xml version="1.0" encoding="iso-8859-1"?>
<!-- Generator: Adobe Illustrator 19.0.0, SVG Export Plug-In . SVG Version: 6.00 Build 0)  -->
<svg version="1.1" id="Capa_1" xmlns="http://www.w3.org/2000/svg" xmlns:xlink="http://www.w3.org/1999/xlink" x="0px" y="0px"
	 viewBox="0 0 512.002 512.002" style="enable-background:new 0 0 512.002 512.002;" xml:space="preserve">
<circle style="fill:#F7F0E6;" cx="256" cy="256.041" r="248.46"/>
<circle style="fill:#EEE2D4;" cx="256" cy="256.041" r="222.76"/>
<circle style="fill:#C7C773;" cx="256" cy="256.041" r="197.06"/>
<circle style="fill:#E1CD78;" cx="256" cy="256.041" r="171.35"/>
<g>
	<path style="fill:#ADDF6E;" d="M164.045,306.077c-4.268-0.743-7.49,3.943-5.267,7.662c7.559,12.65,18.776,24.737,33.075,34.568
		s29.601,15.976,44.119,18.504c4.268,0.743,7.49-3.943,5.267-7.662c-7.559-12.65-18.776-24.737-33.075-34.568
		S178.563,308.605,164.045,306.077z"/>
	<path style="fill:#ADDF6E;" d="M291.853,292.081c-3.035,3.092-1.007,8.404,3.316,8.686c14.705,0.96,31.023-1.412,47.235-7.602
		c16.211-6.19,29.958-15.297,40.281-25.814c3.035-3.092,1.007-8.404-3.316-8.686c-14.705-0.96-31.023,1.412-47.235,7.602
		C315.922,272.457,302.176,281.564,291.853,292.081z"/>
	<path style="fill:#ADDF6E;" d="M294.276,156.087c0.764-4.265-3.905-7.509-7.635-5.306c-12.688,7.495-24.831,18.652-34.733,32.902
		c-9.903,14.25-16.124,29.521-18.725,44.026c-0.764,4.265,3.905,7.509,7.635,5.306c12.688-7.495,24.831-18.652,34.733-32.902
		C285.454,185.863,291.676,170.592,294.276,156.087z"/>
</g>
<g>
	<path style="fill:#F7F0E6;" d="M240.865,264.701l-19.771,20.728c-2.572,2.697-2.471,6.968,0.226,9.541l20.728,19.771
		c3.033,2.893,8.046,2.406,10.331-1.107c9.596-14.753,9.141-34.032-1.142-48.315C248.788,261.917,243.757,261.668,240.865,264.701z"
		/>
	<path style="fill:#F7F0E6;" d="M335.566,199.801l26.467,10.957c3.444,1.426,7.391-0.21,8.816-3.654l10.957-26.467
		c1.603-3.873-0.66-8.372-4.761-9.236c-17.222-3.625-35.037,3.758-44.647,18.503C330.11,193.417,331.693,198.198,335.566,199.801z"
		/>
	<path style="fill:#F7F0E6;" d="M307.464,352.018l-3.534,24.576c-0.53,3.689,2.03,7.11,5.719,7.64l24.576,3.534
		c4.149,0.597,8.005-2.708,7.752-6.892c-0.937-15.512-11.097-29.083-25.716-34.353C312.318,345.1,308.06,347.869,307.464,352.018z"
		/>
	<path style="fill:#F7F0E6;" d="M250.505,419.643l17.868-1.934c3.705-0.401,6.384-3.73,5.983-7.435l-1.934-17.868
		c-0.485-4.482-5.139-7.209-9.329-5.544c-10.535,4.186-18.165,13.667-20,24.854C242.364,416.165,246.023,420.128,250.505,419.643z"
		/>
</g>
<g>
	<path style="fill:#FFA55F;" d="M151.899,361.378l14.051,11.249c2.909,2.329,7.156,1.859,9.485-1.051l11.249-14.051
		c2.669-3.333,1.713-8.5-2.181-10.253c-10.72-4.825-23.317-3.43-32.72,3.624C148.368,353.459,148.566,358.71,151.899,361.378z"/>
	<path style="fill:#FFA55F;" d="M274.702,232.863l14.051,11.249c2.909,2.329,7.156,1.859,9.485-1.051l11.249-14.051
		c2.669-3.333,1.713-8.5-2.181-10.253c-10.72-4.825-23.317-3.43-32.72,3.624C271.171,224.944,271.369,230.195,274.702,232.863z"/>
	<path style="fill:#FFA55F;" d="M392.021,312.054l-24.757,1.877c-3.716,0.282-6.501,3.523-6.219,7.239l1.877,24.757
		c0.317,4.179,4.379,7.227,8.408,6.074c14.94-4.277,25.987-17.137,27.963-32.551C399.825,315.294,396.2,311.737,392.021,312.054z"/>
	<path style="fill:#FFA55F;" d="M243.878,109.175l10.517,14.77c2.162,3.036,6.375,3.745,9.411,1.583l14.77-10.517
		c3.478-2.477,3.97-7.706,0.707-10.46c-9.038-7.627-21.615-9.742-32.65-5.492C242.648,100.595,241.401,105.697,243.878,109.175z"/>
</g>
<path style="fill:#EEE2D4;" d="M147.568,208.927c0.478,2.009,1.187,5.062,4.032,8.19c11.411-30.537,35.779-54.663,66.475-65.746
	c-2.384-1.851-5.339-2.925-9.339-3.611c-2.052-0.352-4.034-0.838-6.02-1.074c-22.298-2.65-43.408-11.418-59.286-27.296
	L36.637,12.598c-7.352-7.362-19.755-6.627-26.099,2.204c-4.984,6.936-3.498,16.66,2.541,22.699L119.198,143.62
	c15.878,15.878,24.646,36.988,27.296,59.286C146.73,204.892,147.086,206.901,147.568,208.927z"/>
<path style="fill:#F7F0E6;" d="M109.446,257.18l18.217,22.106c2.37,2.876,6.623,3.286,9.499,0.916l22.106-18.217
	c3.235-2.666,3.351-7.701,0.135-10.39c-13.501-11.29-32.696-13.141-48.106-4.639C107.629,248.981,106.781,253.945,109.446,257.18z"
	/>
<path d="M436.993,75.048C388.648,26.702,324.37,0.078,256,0.078c-59.431,0-117.011,20.702-162.734,58.391L42.019,7.221
	c-5.117-5.123-12.191-7.727-19.422-7.139C15.377,0.668,8.789,4.41,4.522,10.35c-6.923,9.637-5.492,23.557,3.33,32.378l50.577,50.577
	C20.732,139.038,0.039,196.574,0.039,256.04c0,68.37,26.625,132.647,74.97,180.992s112.622,74.97,180.992,74.97
	s132.647-26.624,180.992-74.97c48.345-48.345,74.97-112.622,74.97-180.992S485.338,123.392,436.993,75.048z M16.705,19.102
	c1.718-2.391,4.241-3.836,7.105-4.068c2.829-0.234,5.598,0.787,7.6,2.792l99.892,99.892c17.916,17.916,41.489,29.379,68.59,33.501
	c-20.669,11.073-37.654,28.044-48.717,48.685c-4.126-27.089-15.587-50.652-33.497-68.562l-99.22-99.22
	C14.834,28.497,14.064,22.778,16.705,19.102z M151.459,252.013l-20.865,17.195l-17.195-20.865
	C125.659,242.028,140.631,243.471,151.459,252.013z M426.386,426.426C380.874,471.937,320.364,497.002,256,497.002
	s-124.874-25.064-170.386-70.576S15.038,320.403,15.038,256.04c0-55.497,19.152-109.202,54.055-152.07l25.886,25.886
	c-59.622,75.872-58.051,183.463,4.383,257.678c1.483,1.764,3.606,2.672,5.743,2.672c1.704,0,3.418-0.578,4.824-1.761
	c3.17-2.667,3.578-7.398,0.911-10.567c-57.461-68.303-59.277-167.11-5.166-237.326l1.396,1.396
	c17.437,17.437,27.919,41.194,30.313,68.703c0.186,2.142,0.476,4.312,0.861,6.453c0.587,3.262,1.438,6.513,2.524,9.667
	c-0.315,1.245-0.607,2.498-0.883,3.758c-14.445-3.01-30.077,0.299-42.323,10.39c-1.535,1.265-2.505,3.088-2.696,5.068
	c-0.191,1.979,0.413,3.955,1.677,5.489l27.244,33.059c1.483,1.8,3.629,2.73,5.792,2.73c1.679,0,3.369-0.561,4.765-1.712
	l33.059-27.244c3.197-2.634,3.653-7.361,1.019-10.558c-4.122-5.001-9.02-8.988-14.371-11.958c0.07-0.228,0.131-0.46,0.179-0.698
	c8.172-39.936,39.158-71.503,78.94-80.421c4.042-0.906,6.584-4.917,5.678-8.959s-4.919-6.584-8.959-5.678
	c-1.067,0.239-2.122,0.507-3.177,0.774c-3.154-1.084-6.387-1.941-9.649-2.528c-2.14-0.385-4.312-0.675-6.453-0.861
	c-27.509-2.394-51.266-12.875-68.703-30.312l-1.396-1.396c70.216-54.111,169.023-52.295,237.326,5.166
	c1.406,1.183,3.12,1.761,4.824,1.761c2.137,0,4.26-0.909,5.743-2.672c2.667-3.169,2.259-7.901-0.911-10.567
	c-74.215-62.435-181.804-64.006-257.678-4.383l-25.89-25.89C146.786,34.233,200.535,15.078,256,15.078
	c64.363,0,124.874,25.064,170.386,70.576s70.576,106.022,70.576,170.386S471.898,380.914,426.386,426.426z"/>
<path d="M412.638,124.546c-2.666-3.17-7.398-3.578-10.567-0.911c-3.17,2.667-3.578,7.398-0.911,10.567
	c30.423,36.164,46.126,82.182,44.217,129.58c-1.921,47.677-21.574,92.529-55.339,126.294s-78.617,53.418-126.294,55.339
	c-47.396,1.911-93.416-13.793-129.58-44.216c-3.169-2.667-7.9-2.258-10.567,0.911s-2.259,7.901,0.911,10.567
	c36.908,31.049,83.319,47.894,131.501,47.894c2.774,0,5.554-0.056,8.339-0.168c51.454-2.073,99.859-23.282,136.297-59.72
	s57.647-84.843,59.721-136.297C462.425,213.242,445.475,163.579,412.638,124.546z"/>
<path d="M329.459,259.26c-20.364,7.775-38.157,20.449-50.102,35.687c-1.624,2.072-2.043,4.843-1.104,7.302s3.099,4.246,5.69,4.708
	c5.642,1.006,11.512,1.503,17.514,1.503c14.278,0,29.286-2.815,43.623-8.289c20.364-7.776,38.157-20.45,50.102-35.687
	c1.624-2.072,2.043-4.843,1.104-7.302c-0.939-2.459-3.099-4.246-5.69-4.708C371.535,249.075,349.822,251.486,329.459,259.26z
	 M339.729,286.158c-12.642,4.827-25.794,7.311-38.224,7.311c-0.084,0-0.168,0-0.253,0c9.3-8.359,20.83-15.335,33.558-20.194
	c12.642-4.827,25.793-7.311,38.224-7.311c0.085,0,0.169,0,0.253,0C363.987,274.323,352.457,281.299,339.729,286.158z"/>
<path d="M227.681,243.774c1.277,0.888,2.774,1.341,4.28,1.341c1.043,0,2.091-0.217,3.073-0.659
	c9.18-4.125,18.059-9.961,26.224-17.118c-0.051,0.516-0.052,1.039,0.006,1.562c0.219,1.977,1.215,3.786,2.768,5.029l25.302,20.255
	c1.383,1.107,3.038,1.646,4.682,1.646c2.199,0,4.378-0.963,5.86-2.813l20.256-25.302c2.588-3.233,2.066-7.953-1.167-10.542
	c-8.322-6.663-18.74-9.684-29.337-8.512c-5.224,0.579-10.18,2.147-14.664,4.582c2.357-2.837,4.617-5.785,6.747-8.85
	c12.439-17.899,19.994-38.397,21.272-57.717c0.174-2.627-1.042-5.152-3.204-6.654c-2.162-1.502-4.954-1.761-7.354-0.683
	c-17.661,7.936-34.237,22.164-46.677,40.064c-12.438,17.9-19.993,38.397-21.271,57.716
	C224.303,239.746,225.519,242.272,227.681,243.774z M303.014,225.096l-10.161,12.691l-12.692-10.161
	C286.889,223.13,295.468,222.18,303.014,225.096z M258.067,187.963c7.775-11.188,17.315-20.705,27.664-27.725
	c-2.971,12.147-8.563,24.407-16.338,35.595c-7.774,11.188-17.314,20.705-27.663,27.725
	C244.7,211.411,250.293,199.151,258.067,187.963z"/>
<path d="M211.26,295.739l30.999,29.567c1.452,1.385,3.315,2.073,5.175,2.073c1.979,0,3.955-0.778,5.428-2.323
	c9.28-9.73,14.216-22.491,13.898-35.933c-0.317-13.442-5.851-25.956-15.581-35.236c-2.997-2.859-7.745-2.748-10.604,0.251
	l-29.567,30.999C208.15,288.133,208.262,292.881,211.26,295.739z M245.706,270.491c3.783,5.562,5.896,12.101,6.058,18.986
	c0.163,6.885-1.638,13.516-5.154,19.251l-19.571-18.667L245.706,270.491z"/>
<path d="M321.757,194.085c-0.761,1.838-0.76,3.903,0.001,5.741c0.762,1.837,2.222,3.297,4.06,4.058l39.581,16.386
	c0.938,0.388,1.91,0.572,2.866,0.572c2.943,0,5.737-1.744,6.933-4.633l16.386-39.581c0.761-1.838,0.76-3.902-0.001-5.74
	c-0.762-1.837-2.222-3.297-4.06-4.058C361.878,156.212,332.375,168.439,321.757,194.085z M374.549,178.56l-10.342,24.981
	l-24.981-10.342C347.082,181.865,360.974,176.107,374.549,178.56z"/>
<path d="M341.645,396.334c1.611,0,3.19-0.519,4.495-1.496c1.592-1.192,2.646-2.968,2.929-4.937
	c1.771-12.313-1.36-24.58-8.815-34.538c-7.455-9.958-18.342-16.418-30.656-18.189c-1.969-0.281-3.97,0.228-5.562,1.42
	c-1.592,1.192-2.646,2.968-2.929,4.937l-5.561,38.675c-0.589,4.1,2.256,7.901,6.356,8.491l38.675,5.561
	C340.933,396.308,341.29,396.334,341.645,396.334z M311.461,376.916l3.299-22.945c5.317,2.128,9.966,5.68,13.485,10.381
	s5.617,10.162,6.161,15.864L311.461,376.916z"/>
<path d="M270.789,377.304c-10.599,1.147-20.117,6.353-26.8,14.658s-9.732,18.716-8.585,29.315c0.416,3.844,3.667,6.694,7.447,6.694
	c0.27,0,0.542-0.014,0.816-0.044l32.223-3.487c1.978-0.214,3.79-1.205,5.037-2.754c1.247-1.55,1.827-3.532,1.613-5.509
	l-3.487-32.223C278.606,379.836,274.907,376.858,270.789,377.304z M250.646,412.084c0.773-3.882,2.477-7.546,5.029-10.718
	s5.768-5.62,9.394-7.206l1.75,16.174L250.646,412.084z"/>
<path d="M141.229,362.444l25.302,20.256c1.336,1.07,2.991,1.645,4.687,1.645c0.275,0,0.551-0.015,0.826-0.045
	c1.977-0.219,3.786-1.215,5.029-2.768l17.892-22.35c16.091,9.533,33.728,15.265,50.461,16.288c0.154,0.01,0.307,0.014,0.459,0.014
	c2.459,0,4.775-1.208,6.179-3.251c1.492-2.169,1.736-4.961,0.646-7.357c-8.024-17.621-22.335-34.126-40.297-46.475
	s-38.498-19.801-57.823-20.982c-2.637-0.172-5.147,1.068-6.638,3.237c-1.492,2.169-1.736,4.961-0.646,7.357
	c4.69,10.3,11.541,20.21,20.001,29.14c-10.331,1.019-20.261,6.023-27.246,14.749C137.473,355.135,137.995,359.855,141.229,362.444z
	 M203.915,330.761c11.227,7.718,20.792,17.211,27.863,27.525c-12.162-2.91-24.45-8.441-35.677-16.159
	c-11.227-7.719-20.792-17.211-27.863-27.525C180.401,317.511,192.689,323.043,203.915,330.761z M168.476,352.084
	c4.047-0.447,8.052,0.084,11.742,1.518l-10.167,12.7l-12.7-10.167C160.637,353.929,164.429,352.532,168.476,352.084z"/>
<path d="M404.383,305.799c-1.509-1.296-3.478-1.94-5.454-1.79l-38.961,2.954c-1.983,0.15-3.826,1.083-5.122,2.591
	c-1.296,1.509-1.94,3.471-1.79,5.454l2.954,38.961c0.298,3.938,3.586,6.934,7.471,6.934c0.19,0,0.382-0.007,0.575-0.022
	c25.607-1.941,44.86-24.354,42.919-49.96C406.824,308.937,405.891,307.094,404.383,305.799z M370.331,344.46l-1.752-23.106
	l23.107-1.752C389.769,331.176,381.485,340.82,370.331,344.46z"/>
<path d="M258.315,136.943c1.505,0,3.024-0.452,4.344-1.391l26.508-18.874c1.62-1.153,2.716-2.904,3.046-4.865
	s-0.133-3.974-1.287-5.594c-12.806-17.985-37.857-22.199-55.842-9.394c-1.62,1.154-2.716,2.904-3.046,4.866s0.133,3.974,1.287,5.594
	l18.875,26.508C253.662,135.848,255.971,136.943,258.315,136.943z M273.423,109.474l-13.355,9.509l-9.509-13.355
	C258.322,103.108,266.911,104.553,273.423,109.474z"/>
<path d="M196.384,215.853c0.935,0.385,1.902,0.567,2.853,0.567c2.949,0,5.746-1.75,6.938-4.646l3.749-9.103
	c1.577-3.83-0.249-8.214-4.079-9.791c-3.833-1.578-8.214,0.25-9.791,4.079l-3.749,9.103
	C190.727,209.892,192.554,214.276,196.384,215.853z"/>
<path d="M319.044,126.723l9.103,8.032c1.426,1.259,3.196,1.876,4.959,1.876c2.077,0,4.145-0.858,5.626-2.538
	c2.741-3.106,2.444-7.846-0.661-10.586l-9.103-8.032c-3.107-2.742-7.847-2.444-10.586,0.661
	C315.642,119.243,315.938,123.983,319.044,126.723z"/>
<path d="M398.943,240.028c1.188,0.693,2.488,1.022,3.772,1.022c2.58,0,5.091-1.333,6.485-3.722l7.497-12.852
	c2.087-3.578,0.878-8.17-2.7-10.257c-3.578-2.085-8.169-0.879-10.257,2.7l-7.497,12.852
	C394.156,233.348,395.365,237.941,398.943,240.028z"/>
<path d="M189.603,274.249c1.806,0,3.617-0.648,5.055-1.961l12.316-11.245c3.059-2.793,3.274-7.537,0.481-10.596
	c-2.793-3.06-7.537-3.275-10.596-0.481l-12.316,11.245c-3.059,2.793-3.274,7.537-0.481,10.596
	C185.542,273.427,187.569,274.249,189.603,274.249z"/>
<path d="M127.892,324.791l-11.78-18.207c-2.25-3.478-6.893-4.471-10.371-2.223c-3.478,2.25-4.473,6.894-2.223,10.371l11.78,18.207
	c1.436,2.219,3.845,3.427,6.304,3.427c1.396,0,2.808-0.39,4.067-1.204C129.147,332.912,130.142,328.268,127.892,324.791z"/>
<path d="M206.252,388.89l-11.245,11.245c-2.929,2.929-2.929,7.678,0,10.606c1.464,1.464,3.384,2.197,5.303,2.197
	s3.839-0.732,5.303-2.197l11.245-11.245c2.929-2.929,2.929-7.678,0-10.606C213.93,385.961,209.181,385.961,206.252,388.89z"/>
<path d="M285.158,344.98l-4.819-16.6c-1.155-3.978-5.317-6.267-9.294-5.111c-3.978,1.155-6.266,5.316-5.111,9.294l4.819,16.6
	c0.952,3.279,3.948,5.411,7.199,5.411c0.692,0,1.396-0.097,2.095-0.299C284.024,353.119,286.312,348.958,285.158,344.98z"/>
<path d="M327.745,331.546c0.228,0,0.457-0.01,0.688-0.031l5.89-0.536c4.125-0.375,7.165-4.023,6.79-8.148s-4.025-7.172-8.148-6.79
	l-5.89,0.536c-4.125,0.375-7.165,4.023-6.79,8.148C320.639,328.619,323.91,331.546,327.745,331.546z"/>
<path d="M106.256,203.431c0.479,0.092,0.955,0.136,1.425,0.136c3.524,0,6.667-2.496,7.357-6.085l2.678-13.922
	c0.782-4.067-1.881-7.999-5.949-8.782c-4.062-0.777-7.999,1.881-8.782,5.949l-2.678,13.922
	C99.525,198.717,102.189,202.649,106.256,203.431z"/>
<path d="M212.853,108.634l-20.705-9.996c-3.732-1.803-8.214-0.237-10.015,3.493s-0.237,8.214,3.493,10.015l20.705,9.996
	c1.051,0.508,2.162,0.748,3.255,0.748c2.788,0,5.466-1.562,6.759-4.241C218.147,114.918,216.583,110.434,212.853,108.634z"/>
<path d="M409.979,288.796c0.659,3.622,3.815,6.16,7.37,6.16c0.445,0,0.897-0.04,1.351-0.123c4.075-0.741,6.778-4.646,6.037-8.721
	l-2.856-15.707c-0.741-4.075-4.644-6.777-8.721-6.037c-4.075,0.741-6.778,4.646-6.037,8.721L409.979,288.796z"/>
<path d="M342.175,243.49c0.316,0.04,0.629,0.059,0.939,0.059c3.728,0,6.958-2.776,7.433-6.571c0.514-4.11-2.402-7.858-6.512-8.372
	l-5.712-0.714c-4.111-0.512-7.858,2.401-8.372,6.512s2.402,7.858,6.512,8.372L342.175,243.49z"/>
<path d="M319.046,167.076c1.077,0.538,2.221,0.793,3.348,0.793c2.751,0,5.4-1.52,6.714-4.147l2.142-4.284
	c1.852-3.705,0.35-8.21-3.354-10.062c-3.705-1.851-8.209-0.351-10.062,3.354l-2.142,4.284
	C313.839,160.718,315.341,165.223,319.046,167.076z"/>
<path d="M304.55,406.327c-4.142,0-7.5,3.358-7.5,7.5s3.358,7.5,7.5,7.5h4.998c4.142,0,7.5-3.358,7.5-7.5s-3.358-7.5-7.5-7.5H304.55z
	"/>
<path d="M359.124,142.766c1.256,2.765,3.981,4.398,6.832,4.398c1.038,0,2.093-0.217,3.099-0.674c3.771-1.714,5.438-6.16,3.724-9.931
	l-3.57-7.854c-1.714-3.771-6.162-5.438-9.931-3.724c-3.771,1.714-5.438,6.16-3.724,9.931L359.124,142.766z"/>
<g>
</g>
<g>
</g>
<g>
</g>
<g>
</g>
<g>
</g>
<g>
</g>
<g>
</g>
<g>
</g>
<g>
</g>
<g>
</g>
<g>
</g>
<g>
</g>
<g>
</g>
<g>
</g>
<g>
</g>
</svg>
